<mxfile host="app.diagrams.net" modified="2021-03-03T06:51:21.910Z" agent="5.0 (Windows NT 10.0; Win64; x64) AppleWebKit/537.36 (KHTML, like Gecko) Chrome/88.0.4324.190 Safari/537.36" etag="a3eedgI2OvBZ1RYZYdyw" version="14.4.3" type="github">
  <diagram id="9gijPCrK2XbbSChvlzGk" name="第 1 页">
    <mxGraphModel dx="2062" dy="1155" grid="1" gridSize="10" guides="1" tooltips="1" connect="1" arrows="1" fold="1" page="1" pageScale="1" pageWidth="1100" pageHeight="850" math="0" shadow="0">
      <root>
        <mxCell id="0" />
        <mxCell id="1" parent="0" />
        <mxCell id="6Y1af41Ok9K7a-6xRhIQ-37" value="" style="html=1;points=[];perimeter=orthogonalPerimeter;dashed=1;fillColor=#f5f5f5;strokeColor=#666666;fontColor=#333333;" vertex="1" parent="1">
          <mxGeometry x="265" y="210" width="10" height="450" as="geometry" />
        </mxCell>
        <mxCell id="6Y1af41Ok9K7a-6xRhIQ-40" value="钉钉小程序" style="rounded=1;whiteSpace=wrap;html=1;strokeWidth=2;fillWeight=4;hachureGap=8;hachureAngle=45;fillColor=#f5f5f5;sketch=1;dashed=1;labelBackgroundColor=#ffffff;fontSize=17;strokeColor=#666666;fontColor=#333333;" vertex="1" parent="1">
          <mxGeometry x="210" y="140" width="120" height="60" as="geometry" />
        </mxCell>
        <mxCell id="6Y1af41Ok9K7a-6xRhIQ-41" value="钉钉服务平台" style="rounded=1;whiteSpace=wrap;html=1;strokeWidth=2;fillWeight=4;hachureGap=8;hachureAngle=45;fillColor=#fff2cc;sketch=1;dashed=1;labelBackgroundColor=#ffffff;fontSize=17;strokeColor=#d6b656;" vertex="1" parent="1">
          <mxGeometry x="437" y="140" width="120" height="60" as="geometry" />
        </mxCell>
        <mxCell id="6Y1af41Ok9K7a-6xRhIQ-45" value="点餐服务" style="rounded=1;whiteSpace=wrap;html=1;strokeWidth=2;fillWeight=4;hachureGap=8;hachureAngle=45;fillColor=#d5e8d4;sketch=1;dashed=1;labelBackgroundColor=#ffffff;fontSize=17;strokeColor=#82b366;" vertex="1" parent="1">
          <mxGeometry x="665" y="140" width="120" height="60" as="geometry" />
        </mxCell>
        <mxCell id="6Y1af41Ok9K7a-6xRhIQ-46" value="采购平台" style="rounded=1;whiteSpace=wrap;html=1;strokeWidth=2;fillWeight=4;hachureGap=8;hachureAngle=45;fillColor=#ffe6cc;sketch=1;dashed=1;labelBackgroundColor=#ffffff;fontSize=17;strokeColor=#d79b00;" vertex="1" parent="1">
          <mxGeometry x="892" y="140" width="120" height="60" as="geometry" />
        </mxCell>
        <mxCell id="6Y1af41Ok9K7a-6xRhIQ-47" value="" style="html=1;points=[];perimeter=orthogonalPerimeter;dashed=1;fillColor=#fff2cc;strokeColor=#d6b656;" vertex="1" parent="1">
          <mxGeometry x="495" y="210" width="10" height="450" as="geometry" />
        </mxCell>
        <mxCell id="6Y1af41Ok9K7a-6xRhIQ-48" value="" style="html=1;points=[];perimeter=orthogonalPerimeter;dashed=1;fillColor=#d5e8d4;strokeColor=#82b366;" vertex="1" parent="1">
          <mxGeometry x="725" y="210" width="10" height="450" as="geometry" />
        </mxCell>
        <mxCell id="6Y1af41Ok9K7a-6xRhIQ-49" value="" style="html=1;points=[];perimeter=orthogonalPerimeter;dashed=1;fillColor=#ffe6cc;strokeColor=#d79b00;" vertex="1" parent="1">
          <mxGeometry x="955" y="210" width="10" height="450" as="geometry" />
        </mxCell>
        <mxCell id="6Y1af41Ok9K7a-6xRhIQ-52" value="一、申请应用开通" style="rounded=1;whiteSpace=wrap;html=1;dashed=1;labelBackgroundColor=#ffffff;fontSize=17;" vertex="1" parent="1">
          <mxGeometry x="50" y="250" width="150" height="30" as="geometry" />
        </mxCell>
        <mxCell id="6Y1af41Ok9K7a-6xRhIQ-57" value="2.推送组织开通消息" style="html=1;verticalAlign=bottom;startArrow=none;startFill=0;endArrow=block;fontSize=13;" edge="1" parent="1">
          <mxGeometry width="60" relative="1" as="geometry">
            <mxPoint x="520" y="270" as="sourcePoint" />
            <mxPoint x="720" y="270" as="targetPoint" />
          </mxGeometry>
        </mxCell>
        <mxCell id="6Y1af41Ok9K7a-6xRhIQ-59" value="1.获取家校通讯录" style="html=1;verticalAlign=bottom;startArrow=classic;startFill=1;endArrow=none;startSize=8;fontSize=13;endFill=0;fillColor=#f8cecc;strokeColor=#B85450;" edge="1" parent="1">
          <mxGeometry width="60" relative="1" as="geometry">
            <mxPoint x="716" y="323" as="sourcePoint" />
            <mxPoint x="516" y="323" as="targetPoint" />
          </mxGeometry>
        </mxCell>
        <mxCell id="6Y1af41Ok9K7a-6xRhIQ-60" value="二、获取家校通讯录" style="rounded=1;whiteSpace=wrap;html=1;dashed=1;labelBackgroundColor=#ffffff;fontSize=17;fillColor=#f8cecc;strokeColor=#B85450;" vertex="1" parent="1">
          <mxGeometry x="50" y="310" width="180" height="30" as="geometry" />
        </mxCell>
        <mxCell id="6Y1af41Ok9K7a-6xRhIQ-61" value="1.申请开通" style="html=1;verticalAlign=bottom;startArrow=none;startFill=0;endArrow=block;fontSize=13;" edge="1" parent="1">
          <mxGeometry width="60" relative="1" as="geometry">
            <mxPoint x="280" y="270" as="sourcePoint" />
            <mxPoint x="480" y="270" as="targetPoint" />
          </mxGeometry>
        </mxCell>
        <mxCell id="6Y1af41Ok9K7a-6xRhIQ-62" value="" style="shape=requiredInterface;html=1;verticalLabelPosition=bottom;dashed=1;labelBackgroundColor=#ffffff;fontSize=13;" vertex="1" parent="1">
          <mxGeometry x="738" y="270" width="12" height="50" as="geometry" />
        </mxCell>
        <mxCell id="6Y1af41Ok9K7a-6xRhIQ-65" value="2.创建/更新点餐学生数据" style="edgeStyle=orthogonalEdgeStyle;html=1;align=left;spacingLeft=2;endArrow=block;rounded=0;fontSize=13;fillColor=#f8cecc;strokeColor=#B85450;" edge="1" parent="1">
          <mxGeometry relative="1" as="geometry">
            <mxPoint x="738" y="330" as="sourcePoint" />
            <Array as="points">
              <mxPoint x="763" y="330" />
            </Array>
            <mxPoint x="738" y="360" as="targetPoint" />
          </mxGeometry>
        </mxCell>
        <mxCell id="6Y1af41Ok9K7a-6xRhIQ-67" value="学校名称、年纪班级、学生、家长、教职工等数据" style="shape=document;whiteSpace=wrap;html=1;boundedLbl=1;dashed=1;labelBackgroundColor=#ffffff;fontSize=8;fontColor=#787878;" vertex="1" parent="1">
          <mxGeometry x="600" y="330" width="80" height="70" as="geometry" />
        </mxCell>
        <mxCell id="6Y1af41Ok9K7a-6xRhIQ-68" value="三、管理数据配置" style="rounded=1;whiteSpace=wrap;html=1;dashed=1;labelBackgroundColor=#ffffff;fontSize=17;" vertex="1" parent="1">
          <mxGeometry x="50" y="395" width="180" height="30" as="geometry" />
        </mxCell>
        <mxCell id="6Y1af41Ok9K7a-6xRhIQ-69" value="&lt;font color=&quot;#000000&quot;&gt;采购商关联&lt;/font&gt;" style="html=1;verticalAlign=bottom;endArrow=block;fontSize=8;fontColor=#787878;startArrow=classic;startFill=1;" edge="1" parent="1">
          <mxGeometry width="80" relative="1" as="geometry">
            <mxPoint x="740" y="410" as="sourcePoint" />
            <mxPoint x="950" y="410" as="targetPoint" />
          </mxGeometry>
        </mxCell>
      </root>
    </mxGraphModel>
  </diagram>
</mxfile>
